<svg xmlns="http://www.w3.org/2000/svg" xmlns:xlink="http://www.w3.org/1999/xlink" width="500" zoomAndPan="magnify" viewBox="0 0 375 374.999991" height="500" preserveAspectRatio="xMidYMid meet" version="1.0"><defs><clipPath id="6f1b230366"><path d="M 37.5 235 L 132 235 L 132 331.585938 L 37.5 331.585938 Z M 37.5 235 " clip-rule="nonzero"/></clipPath><clipPath id="caebd8cdc2"><path d="M 86 43.585938 L 331 43.585938 L 331 288 L 86 288 Z M 86 43.585938 " clip-rule="nonzero"/></clipPath><clipPath id="70368888d8"><path d="M 156.453125 113.601562 L 264.589844 113.601562 L 264.589844 221.738281 L 156.453125 221.738281 Z M 156.453125 113.601562 " clip-rule="nonzero"/></clipPath><clipPath id="7d8b74ebce"><path d="M 210.523438 113.601562 C 180.660156 113.601562 156.453125 137.808594 156.453125 167.671875 C 156.453125 197.53125 180.660156 221.738281 210.523438 221.738281 C 240.382812 221.738281 264.589844 197.53125 264.589844 167.671875 C 264.589844 137.808594 240.382812 113.601562 210.523438 113.601562 Z M 210.523438 113.601562 " clip-rule="nonzero"/></clipPath><clipPath id="8ede8507dd"><path d="M 160 121.789062 L 251.761719 121.789062 L 251.761719 210 L 160 210 Z M 160 121.789062 " clip-rule="nonzero"/></clipPath></defs><g clip-path="url(#6f1b230366)"><path fill="#737373" d="M 116.597656 257.207031 C 110 250.621094 104.273438 243.492188 99.40625 235.957031 L 44.40625 290.953125 C 39.929688 295.429688 37.472656 301.375 37.472656 307.707031 C 37.472656 314.023438 39.929688 319.972656 44.40625 324.449219 C 48.878906 328.921875 54.828125 331.378906 61.144531 331.378906 C 67.476562 331.378906 73.425781 328.921875 77.898438 324.449219 L 131.972656 270.375 C 126.570312 266.4375 121.421875 262.039062 116.597656 257.207031 Z M 69.296875 313.5625 C 64.566406 318.28125 56.914062 318.28125 52.195312 313.5625 C 47.464844 308.832031 47.464844 301.179688 52.195312 296.460938 C 56.914062 291.742188 64.566406 291.730469 69.296875 296.460938 C 74.015625 301.179688 74.015625 308.84375 69.296875 313.5625 Z M 69.296875 313.5625 " fill-opacity="1" fill-rule="nonzero"/></g><path fill="#737373" d="M 175.945312 232.132812 L 141.164062 266.914062 C 140.027344 266.148438 138.902344 265.371094 137.792969 264.558594 C 132.34375 260.675781 127.171875 256.304688 122.335938 251.46875 C 115.730469 244.859375 110.046875 237.671875 105.28125 230.078125 C 104.539062 228.894531 103.808594 227.703125 103.128906 226.496094 L 138.730469 190.90625 C 139.226562 192.285156 139.773438 193.652344 140.351562 195.007812 C 143.96875 203.296875 149.164062 211.078125 155.945312 217.859375 C 160.882812 222.800781 166.355469 226.902344 172.175781 230.171875 C 173.417969 230.855469 174.671875 231.515625 175.945312 232.132812 Z M 175.945312 232.132812 " fill-opacity="1" fill-rule="nonzero"/><path fill="#737373" d="M 251.769531 156.308594 L 228.035156 180.039062 L 223.003906 180.039062 L 223.003906 185.070312 L 199.273438 208.804688 C 198.171875 207.992188 197.183594 207.03125 196.386719 205.964844 C 194.738281 203.796875 193.777344 201.152344 193.777344 198.3125 L 193.777344 180.039062 L 175.503906 180.039062 C 170.21875 180.039062 165.664062 176.726562 163.472656 171.890625 C 162.835938 170.511719 162.40625 169.003906 162.207031 167.414062 L 178.820312 150.804688 L 193.777344 150.804688 L 193.777344 135.847656 L 210.390625 119.234375 C 211.980469 119.429688 213.484375 119.859375 214.863281 120.496094 C 216.304688 121.144531 217.601562 122.015625 218.726562 123.046875 C 221.367188 125.472656 223.003906 128.832031 223.003906 132.542969 L 223.003906 150.804688 L 241.273438 150.804688 C 244.125 150.804688 246.757812 151.765625 248.925781 153.421875 C 250.003906 154.222656 250.953125 155.195312 251.769531 156.308594 Z M 251.769531 156.308594 " fill-opacity="1" fill-rule="nonzero"/><path fill="#ffffff" d="M 175.503906 150.804688 C 174.578125 150.804688 173.671875 150.90625 172.792969 151.105469 C 172.792969 151.105469 172.792969 151.105469 172.78125 151.105469 L 162.636719 161.25 C 162.277344 162.570312 162.078125 163.972656 162.078125 165.421875 C 162.078125 166.09375 162.125 166.765625 162.207031 167.417969 C 162.40625 169.003906 162.832031 170.511719 163.472656 171.890625 L 184.558594 150.804688 Z M 251.769531 156.308594 C 250.957031 155.195312 250.003906 154.222656 248.925781 153.421875 L 222.308594 180.039062 L 196.386719 205.964844 C 197.183594 207.03125 198.171875 207.992188 199.273438 208.804688 C 200.398438 209.628906 201.660156 210.3125 203.027344 210.800781 L 223.003906 190.820312 L 223.003906 180.039062 L 233.785156 180.039062 L 253.761719 160.066406 C 253.273438 158.695312 252.601562 157.433594 251.769531 156.308594 Z M 175.945312 232.132812 C 174.671875 231.515625 173.417969 230.855469 172.179688 230.171875 L 137.792969 264.558594 C 138.90625 265.371094 140.03125 266.148438 141.167969 266.914062 C 142.324219 267.675781 143.496094 268.417969 144.679688 269.148438 L 179.921875 233.90625 C 178.578125 233.359375 177.253906 232.765625 175.945312 232.132812 Z M 138.730469 190.902344 C 138.207031 189.476562 137.734375 188.039062 137.292969 186.589844 L 101.074219 222.808594 C 101.722656 224.050781 102.40625 225.277344 103.128906 226.496094 C 103.808594 227.703125 104.539062 228.894531 105.28125 230.078125 L 140.351562 195.007812 C 139.773438 193.652344 139.230469 192.285156 138.730469 190.902344 Z M 210.390625 119.234375 C 209.742188 119.152344 209.070312 119.105469 208.394531 119.105469 C 206.945312 119.105469 205.542969 119.304688 204.222656 119.660156 L 194.089844 129.792969 C 193.878906 130.6875 193.777344 131.601562 193.777344 132.542969 L 193.777344 141.585938 L 214.863281 120.496094 C 213.484375 119.859375 211.980469 119.429688 210.390625 119.234375 Z M 210.390625 119.234375 " fill-opacity="1" fill-rule="nonzero"/><g clip-path="url(#caebd8cdc2)"><path fill="#737373" d="M 210.390625 119.234375 C 209.742188 119.152344 209.070312 119.105469 208.394531 119.105469 C 206.945312 119.105469 205.542969 119.304688 204.222656 119.660156 C 199.109375 121.054688 195.179688 124.949219 194.089844 129.792969 C 193.878906 130.6875 193.777344 131.601562 193.777344 132.542969 L 193.777344 141.585938 L 214.863281 120.496094 C 213.484375 119.859375 211.980469 119.429688 210.390625 119.234375 Z M 253.761719 160.066406 L 233.785156 180.039062 L 241.273438 180.039062 C 248.695312 180.039062 254.699219 173.492188 254.699219 165.421875 C 254.699219 163.53125 254.375 161.722656 253.761719 160.066406 Z M 166.011719 155.089844 C 164.457031 156.785156 163.285156 158.894531 162.636719 161.25 L 172.78125 151.105469 C 170.160156 151.683594 167.828125 153.109375 166.011719 155.089844 Z M 253.761719 160.066406 L 233.785156 180.039062 L 241.273438 180.039062 C 248.695312 180.039062 254.699219 173.492188 254.699219 165.421875 C 254.699219 163.53125 254.375 161.722656 253.761719 160.066406 Z M 218.726562 123.046875 C 217.601562 122.015625 216.304688 121.144531 214.863281 120.496094 C 213.484375 119.859375 211.980469 119.429688 210.390625 119.234375 C 209.742188 119.152344 209.070312 119.105469 208.394531 119.105469 C 206.945312 119.105469 205.542969 119.304688 204.222656 119.660156 C 199.109375 121.054688 195.179688 124.949219 194.089844 129.792969 C 193.878906 130.6875 193.777344 131.601562 193.777344 132.542969 L 193.777344 150.800781 L 223.003906 150.800781 L 223.003906 132.542969 C 223.003906 128.832031 221.367188 125.472656 218.726562 123.046875 Z M 175.503906 150.804688 C 174.578125 150.804688 173.671875 150.90625 172.792969 151.105469 C 172.792969 151.105469 172.792969 151.105469 172.78125 151.105469 C 170.160156 151.683594 167.828125 153.109375 166.011719 155.089844 C 164.457031 156.785156 163.285156 158.894531 162.636719 161.25 C 162.277344 162.570312 162.078125 163.972656 162.078125 165.421875 C 162.078125 166.09375 162.125 166.765625 162.207031 167.417969 C 162.40625 169.003906 162.832031 170.511719 163.472656 171.890625 C 165.664062 176.726562 170.21875 180.042969 175.503906 180.042969 L 193.777344 180.042969 L 193.777344 150.804688 Z M 253.761719 160.066406 C 253.273438 158.695312 252.601562 157.433594 251.769531 156.308594 L 228.035156 180.039062 L 241.273438 180.039062 C 248.695312 180.039062 254.699219 173.492188 254.699219 165.421875 C 254.699219 163.53125 254.375 161.722656 253.761719 160.066406 Z M 241.273438 150.804688 L 223.003906 150.804688 L 223.003906 179.34375 L 248.925781 153.421875 C 246.757812 151.765625 244.125 150.804688 241.273438 150.804688 Z M 218.726562 123.046875 C 217.601562 122.015625 216.304688 121.144531 214.863281 120.496094 C 213.484375 119.859375 211.980469 119.429688 210.390625 119.234375 C 209.742188 119.152344 209.070312 119.105469 208.394531 119.105469 C 206.945312 119.105469 205.542969 119.304688 204.222656 119.660156 C 199.109375 121.054688 195.179688 124.949219 194.089844 129.792969 C 193.878906 130.6875 193.777344 131.601562 193.777344 132.542969 L 193.777344 150.800781 L 223.003906 150.800781 L 223.003906 132.542969 C 223.003906 128.832031 221.367188 125.472656 218.726562 123.046875 Z M 175.503906 150.804688 C 174.578125 150.804688 173.671875 150.90625 172.792969 151.105469 C 172.792969 151.105469 172.792969 151.105469 172.78125 151.105469 C 170.160156 151.683594 167.828125 153.109375 166.011719 155.089844 C 164.457031 156.785156 163.285156 158.894531 162.636719 161.25 C 162.277344 162.570312 162.078125 163.972656 162.078125 165.421875 C 162.078125 166.09375 162.125 166.765625 162.207031 167.417969 C 162.40625 169.003906 162.832031 170.511719 163.472656 171.890625 C 165.664062 176.726562 170.21875 180.042969 175.503906 180.042969 L 193.777344 180.042969 L 193.777344 150.804688 Z M 253.761719 160.066406 C 253.273438 158.695312 252.601562 157.433594 251.769531 156.308594 C 250.957031 155.195312 250.003906 154.222656 248.925781 153.421875 C 246.757812 151.765625 244.125 150.804688 241.273438 150.804688 L 223.003906 150.804688 L 223.003906 132.542969 C 223.003906 128.832031 221.367188 125.472656 218.726562 123.046875 C 217.601562 122.015625 216.304688 121.144531 214.863281 120.496094 C 213.484375 119.859375 211.980469 119.429688 210.390625 119.234375 C 209.742188 119.152344 209.070312 119.105469 208.394531 119.105469 C 206.945312 119.105469 205.542969 119.304688 204.222656 119.660156 C 199.109375 121.054688 195.179688 124.949219 194.089844 129.792969 C 193.878906 130.6875 193.777344 131.601562 193.777344 132.542969 L 193.777344 150.800781 L 175.503906 150.800781 C 174.578125 150.800781 173.671875 150.90625 172.792969 151.101562 C 172.792969 151.101562 172.792969 151.101562 172.78125 151.101562 C 170.160156 151.683594 167.828125 153.109375 166.011719 155.089844 C 164.457031 156.785156 163.285156 158.890625 162.636719 161.246094 C 162.277344 162.570312 162.078125 163.972656 162.078125 165.421875 C 162.078125 166.09375 162.125 166.765625 162.207031 167.414062 C 162.40625 169.003906 162.832031 170.511719 163.472656 171.890625 C 165.664062 176.722656 170.21875 180.039062 175.503906 180.039062 L 193.777344 180.039062 L 193.777344 198.3125 C 193.777344 201.152344 194.742188 203.796875 196.386719 205.964844 C 197.183594 207.03125 198.171875 207.992188 199.273438 208.804688 C 200.398438 209.628906 201.660156 210.3125 203.03125 210.800781 C 204.6875 211.402344 206.496094 211.738281 208.394531 211.738281 C 216.464844 211.738281 223.003906 205.734375 223.003906 198.3125 L 223.003906 180.042969 L 241.277344 180.042969 C 248.695312 180.042969 254.703125 173.492188 254.703125 165.421875 C 254.699219 163.53125 254.375 161.722656 253.761719 160.066406 Z M 253.761719 160.066406 C 253.273438 158.695312 252.601562 157.433594 251.769531 156.308594 C 250.957031 155.195312 250.003906 154.222656 248.925781 153.421875 C 246.757812 151.765625 244.125 150.804688 241.273438 150.804688 L 223.003906 150.804688 L 223.003906 132.542969 C 223.003906 128.832031 221.367188 125.472656 218.726562 123.046875 C 217.601562 122.015625 216.304688 121.144531 214.863281 120.496094 C 213.484375 119.859375 211.980469 119.429688 210.390625 119.234375 C 209.742188 119.152344 209.070312 119.105469 208.394531 119.105469 C 206.945312 119.105469 205.542969 119.304688 204.222656 119.660156 C 199.109375 121.054688 195.179688 124.949219 194.089844 129.792969 C 193.878906 130.6875 193.777344 131.601562 193.777344 132.542969 L 193.777344 150.800781 L 175.503906 150.800781 C 174.578125 150.800781 173.671875 150.90625 172.792969 151.101562 C 172.792969 151.101562 172.792969 151.101562 172.78125 151.101562 C 170.160156 151.683594 167.828125 153.109375 166.011719 155.089844 C 164.457031 156.785156 163.285156 158.890625 162.636719 161.246094 C 162.277344 162.570312 162.078125 163.972656 162.078125 165.421875 C 162.078125 166.09375 162.125 166.765625 162.207031 167.414062 C 162.40625 169.003906 162.832031 170.511719 163.472656 171.890625 C 165.664062 176.722656 170.21875 180.039062 175.503906 180.039062 L 193.777344 180.039062 L 193.777344 198.3125 C 193.777344 201.152344 194.742188 203.796875 196.386719 205.964844 C 197.183594 207.03125 198.171875 207.992188 199.273438 208.804688 C 200.398438 209.628906 201.660156 210.3125 203.03125 210.800781 C 204.6875 211.402344 206.496094 211.738281 208.394531 211.738281 C 216.464844 211.738281 223.003906 205.734375 223.003906 198.3125 L 223.003906 180.042969 L 241.277344 180.042969 C 248.695312 180.042969 254.703125 173.492188 254.703125 165.421875 C 254.699219 163.53125 254.375 161.722656 253.761719 160.066406 Z M 253.761719 160.066406 C 253.273438 158.695312 252.601562 157.433594 251.769531 156.308594 C 250.957031 155.195312 250.003906 154.222656 248.925781 153.421875 C 246.757812 151.765625 244.125 150.804688 241.273438 150.804688 L 223.003906 150.804688 L 223.003906 132.542969 C 223.003906 128.832031 221.367188 125.472656 218.726562 123.046875 C 217.601562 122.015625 216.304688 121.144531 214.863281 120.496094 C 213.484375 119.859375 211.980469 119.429688 210.390625 119.234375 C 209.742188 119.152344 209.070312 119.105469 208.394531 119.105469 C 206.945312 119.105469 205.542969 119.304688 204.222656 119.660156 C 199.109375 121.054688 195.179688 124.949219 194.089844 129.792969 C 193.878906 130.6875 193.777344 131.601562 193.777344 132.542969 L 193.777344 150.800781 L 175.503906 150.800781 C 174.578125 150.800781 173.671875 150.90625 172.792969 151.101562 C 172.792969 151.101562 172.792969 151.101562 172.78125 151.101562 C 170.160156 151.683594 167.828125 153.109375 166.011719 155.089844 C 164.457031 156.785156 163.285156 158.890625 162.636719 161.246094 C 162.277344 162.570312 162.078125 163.972656 162.078125 165.421875 C 162.078125 166.09375 162.125 166.765625 162.207031 167.414062 C 162.40625 169.003906 162.832031 170.511719 163.472656 171.890625 C 165.664062 176.722656 170.21875 180.039062 175.503906 180.039062 L 193.777344 180.039062 L 193.777344 198.3125 C 193.777344 201.152344 194.742188 203.796875 196.386719 205.964844 C 197.183594 207.03125 198.171875 207.992188 199.273438 208.804688 C 200.398438 209.628906 201.660156 210.3125 203.03125 210.800781 C 204.6875 211.402344 206.496094 211.738281 208.394531 211.738281 C 216.464844 211.738281 223.003906 205.734375 223.003906 198.3125 L 223.003906 180.042969 L 241.277344 180.042969 C 248.695312 180.042969 254.703125 173.492188 254.703125 165.421875 C 254.699219 163.53125 254.375 161.722656 253.761719 160.066406 Z M 253.761719 160.066406 C 253.273438 158.695312 252.601562 157.433594 251.769531 156.308594 C 250.957031 155.195312 250.003906 154.222656 248.925781 153.421875 C 246.757812 151.765625 244.125 150.804688 241.273438 150.804688 L 223.003906 150.804688 L 223.003906 132.542969 C 223.003906 128.832031 221.367188 125.472656 218.726562 123.046875 C 217.601562 122.015625 216.304688 121.144531 214.863281 120.496094 C 213.484375 119.859375 211.980469 119.429688 210.390625 119.234375 C 209.742188 119.152344 209.070312 119.105469 208.394531 119.105469 C 206.945312 119.105469 205.542969 119.304688 204.222656 119.660156 C 199.109375 121.054688 195.179688 124.949219 194.089844 129.792969 C 193.878906 130.6875 193.777344 131.601562 193.777344 132.542969 L 193.777344 150.800781 L 175.503906 150.800781 C 174.578125 150.800781 173.671875 150.90625 172.792969 151.101562 C 172.792969 151.101562 172.792969 151.101562 172.78125 151.101562 C 170.160156 151.683594 167.828125 153.109375 166.011719 155.089844 C 164.457031 156.785156 163.285156 158.890625 162.636719 161.246094 C 162.277344 162.570312 162.078125 163.972656 162.078125 165.421875 C 162.078125 166.09375 162.125 166.765625 162.207031 167.414062 C 162.40625 169.003906 162.832031 170.511719 163.472656 171.890625 C 165.664062 176.722656 170.21875 180.039062 175.503906 180.039062 L 193.777344 180.039062 L 193.777344 198.3125 C 193.777344 201.152344 194.742188 203.796875 196.386719 205.964844 C 197.183594 207.03125 198.171875 207.992188 199.273438 208.804688 C 200.398438 209.628906 201.660156 210.3125 203.03125 210.800781 C 204.6875 211.402344 206.496094 211.738281 208.394531 211.738281 C 216.464844 211.738281 223.003906 205.734375 223.003906 198.3125 L 223.003906 180.042969 L 241.277344 180.042969 C 248.695312 180.042969 254.703125 173.492188 254.703125 165.421875 C 254.699219 163.53125 254.375 161.722656 253.761719 160.066406 Z M 253.761719 160.066406 C 253.273438 158.695312 252.601562 157.433594 251.769531 156.308594 C 250.957031 155.195312 250.003906 154.222656 248.925781 153.421875 C 246.757812 151.765625 244.125 150.804688 241.273438 150.804688 L 223.003906 150.804688 L 223.003906 132.542969 C 223.003906 128.832031 221.367188 125.472656 218.726562 123.046875 C 217.601562 122.015625 216.304688 121.144531 214.863281 120.496094 C 213.484375 119.859375 211.980469 119.429688 210.390625 119.234375 C 209.742188 119.152344 209.070312 119.105469 208.394531 119.105469 C 206.945312 119.105469 205.542969 119.304688 204.222656 119.660156 C 199.109375 121.054688 195.179688 124.949219 194.089844 129.792969 C 193.878906 130.6875 193.777344 131.601562 193.777344 132.542969 L 193.777344 150.800781 L 175.503906 150.800781 C 174.578125 150.800781 173.671875 150.90625 172.792969 151.101562 C 172.792969 151.101562 172.792969 151.101562 172.78125 151.101562 C 170.160156 151.683594 167.828125 153.109375 166.011719 155.089844 C 164.457031 156.785156 163.285156 158.890625 162.636719 161.246094 C 162.277344 162.570312 162.078125 163.972656 162.078125 165.421875 C 162.078125 166.09375 162.125 166.765625 162.207031 167.414062 C 162.40625 169.003906 162.832031 170.511719 163.472656 171.890625 C 165.664062 176.722656 170.21875 180.039062 175.503906 180.039062 L 193.777344 180.039062 L 193.777344 198.3125 C 193.777344 201.152344 194.742188 203.796875 196.386719 205.964844 C 197.183594 207.03125 198.171875 207.992188 199.273438 208.804688 C 200.398438 209.628906 201.660156 210.3125 203.03125 210.800781 C 204.6875 211.402344 206.496094 211.738281 208.394531 211.738281 C 216.464844 211.738281 223.003906 205.734375 223.003906 198.3125 L 223.003906 180.042969 L 241.277344 180.042969 C 248.695312 180.042969 254.703125 173.492188 254.703125 165.421875 C 254.699219 163.53125 254.375 161.722656 253.761719 160.066406 Z M 253.761719 160.066406 C 253.273438 158.695312 252.601562 157.433594 251.769531 156.308594 C 250.957031 155.195312 250.003906 154.222656 248.925781 153.421875 C 246.757812 151.765625 244.125 150.804688 241.273438 150.804688 L 223.003906 150.804688 L 223.003906 132.542969 C 223.003906 128.832031 221.367188 125.472656 218.726562 123.046875 C 217.601562 122.015625 216.304688 121.144531 214.863281 120.496094 C 213.484375 119.859375 211.980469 119.429688 210.390625 119.234375 C 209.742188 119.152344 209.070312 119.105469 208.394531 119.105469 C 206.945312 119.105469 205.542969 119.304688 204.222656 119.660156 C 199.109375 121.054688 195.179688 124.949219 194.089844 129.792969 C 193.878906 130.6875 193.777344 131.601562 193.777344 132.542969 L 193.777344 150.800781 L 175.503906 150.800781 C 174.578125 150.800781 173.671875 150.90625 172.792969 151.101562 C 172.792969 151.101562 172.792969 151.101562 172.78125 151.101562 C 170.160156 151.683594 167.828125 153.109375 166.011719 155.089844 C 164.457031 156.785156 163.285156 158.890625 162.636719 161.246094 C 162.277344 162.570312 162.078125 163.972656 162.078125 165.421875 C 162.078125 166.09375 162.125 166.765625 162.207031 167.414062 C 162.40625 169.003906 162.832031 170.511719 163.472656 171.890625 C 165.664062 176.722656 170.21875 180.039062 175.503906 180.039062 L 193.777344 180.039062 L 193.777344 198.3125 C 193.777344 201.152344 194.742188 203.796875 196.386719 205.964844 C 197.183594 207.03125 198.171875 207.992188 199.273438 208.804688 C 200.398438 209.628906 201.660156 210.3125 203.03125 210.800781 C 204.6875 211.402344 206.496094 211.738281 208.394531 211.738281 C 216.464844 211.738281 223.003906 205.734375 223.003906 198.3125 L 223.003906 180.042969 L 241.277344 180.042969 C 248.695312 180.042969 254.703125 173.492188 254.703125 165.421875 C 254.699219 163.53125 254.375 161.722656 253.761719 160.066406 Z M 253.761719 160.066406 C 253.273438 158.695312 252.601562 157.433594 251.769531 156.308594 C 250.957031 155.195312 250.003906 154.222656 248.925781 153.421875 C 246.757812 151.765625 244.125 150.804688 241.273438 150.804688 L 223.003906 150.804688 L 223.003906 132.542969 C 223.003906 128.832031 221.367188 125.472656 218.726562 123.046875 C 217.601562 122.015625 216.304688 121.144531 214.863281 120.496094 C 213.484375 119.859375 211.980469 119.429688 210.390625 119.234375 C 209.742188 119.152344 209.070312 119.105469 208.394531 119.105469 C 206.945312 119.105469 205.542969 119.304688 204.222656 119.660156 C 199.109375 121.054688 195.179688 124.949219 194.089844 129.792969 C 193.878906 130.6875 193.777344 131.601562 193.777344 132.542969 L 193.777344 150.800781 L 175.503906 150.800781 C 174.578125 150.800781 173.671875 150.90625 172.792969 151.101562 C 172.792969 151.101562 172.792969 151.101562 172.78125 151.101562 C 170.160156 151.683594 167.828125 153.109375 166.011719 155.089844 C 164.457031 156.785156 163.285156 158.890625 162.636719 161.246094 C 162.277344 162.570312 162.078125 163.972656 162.078125 165.421875 C 162.078125 166.09375 162.125 166.765625 162.207031 167.414062 C 162.40625 169.003906 162.832031 170.511719 163.472656 171.890625 C 165.664062 176.722656 170.21875 180.039062 175.503906 180.039062 L 193.777344 180.039062 L 193.777344 198.3125 C 193.777344 201.152344 194.742188 203.796875 196.386719 205.964844 C 197.183594 207.03125 198.171875 207.992188 199.273438 208.804688 C 200.398438 209.628906 201.660156 210.3125 203.03125 210.800781 C 204.6875 211.402344 206.496094 211.738281 208.394531 211.738281 C 216.464844 211.738281 223.003906 205.734375 223.003906 198.3125 L 223.003906 180.042969 L 241.277344 180.042969 C 248.695312 180.042969 254.703125 173.492188 254.703125 165.421875 C 254.699219 163.53125 254.375 161.722656 253.761719 160.066406 Z M 253.761719 160.066406 C 253.273438 158.695312 252.601562 157.433594 251.769531 156.308594 C 250.957031 155.195312 250.003906 154.222656 248.925781 153.421875 C 246.757812 151.765625 244.125 150.804688 241.273438 150.804688 L 223.003906 150.804688 L 223.003906 132.542969 C 223.003906 128.832031 221.367188 125.472656 218.726562 123.046875 C 217.601562 122.015625 216.304688 121.144531 214.863281 120.496094 C 213.484375 119.859375 211.980469 119.429688 210.390625 119.234375 C 209.742188 119.152344 209.070312 119.105469 208.394531 119.105469 C 206.945312 119.105469 205.542969 119.304688 204.222656 119.660156 C 199.109375 121.054688 195.179688 124.949219 194.089844 129.792969 C 193.878906 130.6875 193.777344 131.601562 193.777344 132.542969 L 193.777344 150.800781 L 175.503906 150.800781 C 174.578125 150.800781 173.671875 150.90625 172.792969 151.101562 C 172.792969 151.101562 172.792969 151.101562 172.78125 151.101562 C 170.160156 151.683594 167.828125 153.109375 166.011719 155.089844 C 164.457031 156.785156 163.285156 158.890625 162.636719 161.246094 C 162.277344 162.570312 162.078125 163.972656 162.078125 165.421875 C 162.078125 166.09375 162.125 166.765625 162.207031 167.414062 C 162.40625 169.003906 162.832031 170.511719 163.472656 171.890625 C 165.664062 176.722656 170.21875 180.039062 175.503906 180.039062 L 193.777344 180.039062 L 193.777344 198.3125 C 193.777344 201.152344 194.742188 203.796875 196.386719 205.964844 C 197.183594 207.03125 198.171875 207.992188 199.273438 208.804688 C 200.398438 209.628906 201.660156 210.3125 203.03125 210.800781 C 204.6875 211.402344 206.496094 211.738281 208.394531 211.738281 C 216.464844 211.738281 223.003906 205.734375 223.003906 198.3125 L 223.003906 180.042969 L 241.277344 180.042969 C 248.695312 180.042969 254.703125 173.492188 254.703125 165.421875 C 254.699219 163.53125 254.375 161.722656 253.761719 160.066406 Z M 253.761719 160.066406 C 253.273438 158.695312 252.601562 157.433594 251.769531 156.308594 C 250.957031 155.195312 250.003906 154.222656 248.925781 153.421875 C 246.757812 151.765625 244.125 150.804688 241.273438 150.804688 L 223.003906 150.804688 L 223.003906 132.542969 C 223.003906 128.832031 221.367188 125.472656 218.726562 123.046875 C 217.601562 122.015625 216.304688 121.144531 214.863281 120.496094 C 213.484375 119.859375 211.980469 119.429688 210.390625 119.234375 C 209.742188 119.152344 209.070312 119.105469 208.394531 119.105469 C 206.945312 119.105469 205.542969 119.304688 204.222656 119.660156 C 199.109375 121.054688 195.179688 124.949219 194.089844 129.792969 C 193.878906 130.6875 193.777344 131.601562 193.777344 132.542969 L 193.777344 150.800781 L 175.503906 150.800781 C 174.578125 150.800781 173.671875 150.90625 172.792969 151.101562 C 172.792969 151.101562 172.792969 151.101562 172.78125 151.101562 C 170.160156 151.683594 167.828125 153.109375 166.011719 155.089844 C 164.457031 156.785156 163.285156 158.890625 162.636719 161.246094 C 162.277344 162.570312 162.078125 163.972656 162.078125 165.421875 C 162.078125 166.09375 162.125 166.765625 162.207031 167.414062 C 162.40625 169.003906 162.832031 170.511719 163.472656 171.890625 C 165.664062 176.722656 170.21875 180.039062 175.503906 180.039062 L 193.777344 180.039062 L 193.777344 198.3125 C 193.777344 201.152344 194.742188 203.796875 196.386719 205.964844 C 197.183594 207.03125 198.171875 207.992188 199.273438 208.804688 C 200.398438 209.628906 201.660156 210.3125 203.03125 210.800781 C 204.6875 211.402344 206.496094 211.738281 208.394531 211.738281 C 216.464844 211.738281 223.003906 205.734375 223.003906 198.3125 L 223.003906 180.042969 L 241.277344 180.042969 C 248.695312 180.042969 254.703125 173.492188 254.703125 165.421875 C 254.699219 163.53125 254.375 161.722656 253.761719 160.066406 Z M 253.761719 160.066406 C 253.273438 158.695312 252.601562 157.433594 251.769531 156.308594 C 250.957031 155.195312 250.003906 154.222656 248.925781 153.421875 C 246.757812 151.765625 244.125 150.804688 241.273438 150.804688 L 223.003906 150.804688 L 223.003906 132.542969 C 223.003906 128.832031 221.367188 125.472656 218.726562 123.046875 C 217.601562 122.015625 216.304688 121.144531 214.863281 120.496094 C 213.484375 119.859375 211.980469 119.429688 210.390625 119.234375 C 209.742188 119.152344 209.070312 119.105469 208.394531 119.105469 C 206.945312 119.105469 205.542969 119.304688 204.222656 119.660156 C 199.109375 121.054688 195.179688 124.949219 194.089844 129.792969 C 193.878906 130.6875 193.777344 131.601562 193.777344 132.542969 L 193.777344 150.800781 L 175.503906 150.800781 C 174.578125 150.800781 173.671875 150.90625 172.792969 151.101562 C 172.792969 151.101562 172.792969 151.101562 172.78125 151.101562 C 170.160156 151.683594 167.828125 153.109375 166.011719 155.089844 C 164.457031 156.785156 163.285156 158.890625 162.636719 161.246094 C 162.277344 162.570312 162.078125 163.972656 162.078125 165.421875 C 162.078125 166.09375 162.125 166.765625 162.207031 167.414062 C 162.40625 169.003906 162.832031 170.511719 163.472656 171.890625 C 165.664062 176.722656 170.21875 180.039062 175.503906 180.039062 L 193.777344 180.039062 L 193.777344 198.3125 C 193.777344 201.152344 194.742188 203.796875 196.386719 205.964844 C 197.183594 207.03125 198.171875 207.992188 199.273438 208.804688 C 200.398438 209.628906 201.660156 210.3125 203.03125 210.800781 C 204.6875 211.402344 206.496094 211.738281 208.394531 211.738281 C 216.464844 211.738281 223.003906 205.734375 223.003906 198.3125 L 223.003906 180.042969 L 241.277344 180.042969 C 248.695312 180.042969 254.703125 173.492188 254.703125 165.421875 C 254.699219 163.53125 254.375 161.722656 253.761719 160.066406 Z M 253.761719 160.066406 C 253.273438 158.695312 252.601562 157.433594 251.769531 156.308594 C 250.957031 155.195312 250.003906 154.222656 248.925781 153.421875 C 246.757812 151.765625 244.125 150.804688 241.273438 150.804688 L 223.003906 150.804688 L 223.003906 132.542969 C 223.003906 128.832031 221.367188 125.472656 218.726562 123.046875 C 217.601562 122.015625 216.304688 121.144531 214.863281 120.496094 C 213.484375 119.859375 211.980469 119.429688 210.390625 119.234375 C 209.742188 119.152344 209.070312 119.105469 208.394531 119.105469 C 206.945312 119.105469 205.542969 119.304688 204.222656 119.660156 C 199.109375 121.054688 195.179688 124.949219 194.089844 129.792969 C 193.878906 130.6875 193.777344 131.601562 193.777344 132.542969 L 193.777344 150.800781 L 175.503906 150.800781 C 174.578125 150.800781 173.671875 150.90625 172.792969 151.101562 C 172.792969 151.101562 172.792969 151.101562 172.78125 151.101562 C 170.160156 151.683594 167.828125 153.109375 166.011719 155.089844 C 164.457031 156.785156 163.285156 158.890625 162.636719 161.246094 C 162.277344 162.570312 162.078125 163.972656 162.078125 165.421875 C 162.078125 166.09375 162.125 166.765625 162.207031 167.414062 C 162.40625 169.003906 162.832031 170.511719 163.472656 171.890625 C 165.664062 176.722656 170.21875 180.039062 175.503906 180.039062 L 193.777344 180.039062 L 193.777344 198.3125 C 193.777344 201.152344 194.742188 203.796875 196.386719 205.964844 C 197.183594 207.03125 198.171875 207.992188 199.273438 208.804688 C 200.398438 209.628906 201.660156 210.3125 203.03125 210.800781 C 204.6875 211.402344 206.496094 211.738281 208.394531 211.738281 C 216.464844 211.738281 223.003906 205.734375 223.003906 198.3125 L 223.003906 180.042969 L 241.277344 180.042969 C 248.695312 180.042969 254.703125 173.492188 254.703125 165.421875 C 254.699219 163.53125 254.375 161.722656 253.761719 160.066406 Z M 253.761719 160.066406 C 253.273438 158.695312 252.601562 157.433594 251.769531 156.308594 C 250.957031 155.195312 250.003906 154.222656 248.925781 153.421875 C 246.757812 151.765625 244.125 150.804688 241.273438 150.804688 L 223.003906 150.804688 L 223.003906 132.542969 C 223.003906 128.832031 221.367188 125.472656 218.726562 123.046875 C 217.601562 122.015625 216.304688 121.144531 214.863281 120.496094 C 213.484375 119.859375 211.980469 119.429688 210.390625 119.234375 C 209.742188 119.152344 209.070312 119.105469 208.394531 119.105469 C 206.945312 119.105469 205.542969 119.304688 204.222656 119.660156 C 199.109375 121.054688 195.179688 124.949219 194.089844 129.792969 C 193.878906 130.6875 193.777344 131.601562 193.777344 132.542969 L 193.777344 150.800781 L 175.503906 150.800781 C 174.578125 150.800781 173.671875 150.90625 172.792969 151.101562 C 172.792969 151.101562 172.792969 151.101562 172.78125 151.101562 C 170.160156 151.683594 167.828125 153.109375 166.011719 155.089844 C 164.457031 156.785156 163.285156 158.890625 162.636719 161.246094 C 162.277344 162.570312 162.078125 163.972656 162.078125 165.421875 C 162.078125 166.09375 162.125 166.765625 162.207031 167.414062 C 162.40625 169.003906 162.832031 170.511719 163.472656 171.890625 C 165.664062 176.722656 170.21875 180.039062 175.503906 180.039062 L 193.777344 180.039062 L 193.777344 198.3125 C 193.777344 201.152344 194.742188 203.796875 196.386719 205.964844 C 197.183594 207.03125 198.171875 207.992188 199.273438 208.804688 C 200.398438 209.628906 201.660156 210.3125 203.03125 210.800781 C 204.6875 211.402344 206.496094 211.738281 208.394531 211.738281 C 216.464844 211.738281 223.003906 205.734375 223.003906 198.3125 L 223.003906 180.042969 L 241.277344 180.042969 C 248.695312 180.042969 254.703125 173.492188 254.703125 165.421875 C 254.699219 163.53125 254.375 161.722656 253.761719 160.066406 Z M 327.402344 140.34375 C 328.226562 159.566406 323.796875 179.230469 313.539062 197.105469 C 307.554688 207.527344 299.949219 216.753906 290.917969 224.535156 C 290.152344 225.199219 289.203125 225.519531 288.273438 225.519531 C 287.125 225.519531 285.992188 225.035156 285.191406 224.105469 C 283.730469 222.414062 283.914062 219.851562 285.621094 218.378906 C 293.957031 211.203125 300.980469 202.683594 306.5 193.058594 C 328.203125 155.242188 321.628906 108.808594 293.445312 78.398438 C 293.410156 78.375 293.386719 78.355469 293.363281 78.332031 C 270.5 55.988281 240.378906 43.722656 208.394531 43.722656 C 175.886719 43.722656 145.324219 56.382812 122.335938 79.371094 C 83.566406 118.144531 76.484375 176.785156 101.074219 222.808594 C 101.722656 224.050781 102.40625 225.277344 103.125 226.496094 C 103.808594 227.703125 104.539062 228.894531 105.28125 230.078125 C 110.046875 237.671875 115.726562 244.859375 122.335938 251.46875 C 127.171875 256.304688 132.339844 260.675781 137.789062 264.558594 C 138.902344 265.371094 140.027344 266.148438 141.164062 266.914062 C 142.324219 267.675781 143.496094 268.417969 144.675781 269.148438 C 163.644531 280.859375 185.542969 287.121094 208.394531 287.121094 C 240.890625 287.121094 271.453125 274.460938 294.441406 251.46875 C 324.5625 221.347656 335.578125 179.230469 327.402344 140.34375 Z M 260.832031 217.859375 C 238.957031 239.734375 206.820312 245.082031 179.921875 233.90625 C 178.578125 233.359375 177.253906 232.765625 175.945312 232.132812 C 174.671875 231.515625 173.417969 230.855469 172.179688 230.171875 C 166.359375 226.902344 160.886719 222.796875 155.945312 217.859375 C 149.164062 211.078125 143.972656 203.296875 140.355469 195.007812 C 139.773438 193.652344 139.230469 192.285156 138.730469 190.902344 C 138.210938 189.476562 137.734375 188.039062 137.292969 186.589844 C 129.804688 161.351562 136.019531 132.914062 155.945312 112.984375 C 184.910156 84.023438 231.875 84.023438 260.832031 112.984375 C 289.792969 141.945312 289.792969 188.898438 260.832031 217.859375 Z M 251.769531 156.308594 C 250.957031 155.195312 250.003906 154.222656 248.925781 153.421875 C 246.757812 151.765625 244.125 150.804688 241.273438 150.804688 L 223.003906 150.804688 L 223.003906 132.542969 C 223.003906 128.832031 221.367188 125.472656 218.726562 123.046875 C 217.601562 122.015625 216.304688 121.144531 214.863281 120.496094 C 213.484375 119.859375 211.980469 119.429688 210.390625 119.234375 C 209.742188 119.152344 209.070312 119.105469 208.394531 119.105469 C 206.945312 119.105469 205.542969 119.304688 204.222656 119.660156 C 199.109375 121.054688 195.179688 124.949219 194.089844 129.792969 C 193.878906 130.6875 193.777344 131.601562 193.777344 132.542969 L 193.777344 150.800781 L 175.503906 150.800781 C 174.578125 150.800781 173.671875 150.90625 172.792969 151.101562 C 172.792969 151.101562 172.792969 151.101562 172.78125 151.101562 C 170.160156 151.683594 167.828125 153.109375 166.011719 155.089844 C 164.457031 156.785156 163.285156 158.890625 162.636719 161.246094 C 162.277344 162.570312 162.078125 163.972656 162.078125 165.421875 C 162.078125 166.09375 162.125 166.765625 162.207031 167.414062 C 162.40625 169.003906 162.832031 170.511719 163.472656 171.890625 C 165.664062 176.722656 170.21875 180.039062 175.503906 180.039062 L 193.777344 180.039062 L 193.777344 198.3125 C 193.777344 201.152344 194.742188 203.796875 196.386719 205.964844 C 197.183594 207.03125 198.171875 207.992188 199.273438 208.804688 C 200.398438 209.628906 201.660156 210.3125 203.03125 210.800781 C 204.6875 211.402344 206.496094 211.738281 208.394531 211.738281 C 216.464844 211.738281 223.003906 205.734375 223.003906 198.3125 L 223.003906 180.042969 L 241.277344 180.042969 C 248.695312 180.042969 254.703125 173.492188 254.703125 165.421875 C 254.703125 163.53125 254.378906 161.726562 253.761719 160.066406 C 253.273438 158.695312 252.601562 157.433594 251.769531 156.308594 Z M 253.761719 160.066406 C 253.273438 158.695312 252.601562 157.433594 251.769531 156.308594 C 250.957031 155.195312 250.003906 154.222656 248.925781 153.421875 C 246.757812 151.765625 244.125 150.804688 241.273438 150.804688 L 223.003906 150.804688 L 223.003906 132.542969 C 223.003906 128.832031 221.367188 125.472656 218.726562 123.046875 C 217.601562 122.015625 216.304688 121.144531 214.863281 120.496094 C 213.484375 119.859375 211.980469 119.429688 210.390625 119.234375 C 209.742188 119.152344 209.070312 119.105469 208.394531 119.105469 C 206.945312 119.105469 205.542969 119.304688 204.222656 119.660156 C 199.109375 121.054688 195.179688 124.949219 194.089844 129.792969 C 193.878906 130.6875 193.777344 131.601562 193.777344 132.542969 L 193.777344 150.800781 L 175.503906 150.800781 C 174.578125 150.800781 173.671875 150.90625 172.792969 151.101562 C 172.792969 151.101562 172.792969 151.101562 172.78125 151.101562 C 170.160156 151.683594 167.828125 153.109375 166.011719 155.089844 C 164.457031 156.785156 163.285156 158.890625 162.636719 161.246094 C 162.277344 162.570312 162.078125 163.972656 162.078125 165.421875 C 162.078125 166.09375 162.125 166.765625 162.207031 167.414062 C 162.40625 169.003906 162.832031 170.511719 163.472656 171.890625 C 165.664062 176.722656 170.21875 180.039062 175.503906 180.039062 L 193.777344 180.039062 L 193.777344 198.3125 C 193.777344 201.152344 194.742188 203.796875 196.386719 205.964844 C 197.183594 207.03125 198.171875 207.992188 199.273438 208.804688 C 200.398438 209.628906 201.660156 210.3125 203.03125 210.800781 C 204.6875 211.402344 206.496094 211.738281 208.394531 211.738281 C 216.464844 211.738281 223.003906 205.734375 223.003906 198.3125 L 223.003906 180.042969 L 241.277344 180.042969 C 248.695312 180.042969 254.703125 173.492188 254.703125 165.421875 C 254.699219 163.53125 254.375 161.722656 253.761719 160.066406 Z M 253.761719 160.066406 C 253.273438 158.695312 252.601562 157.433594 251.769531 156.308594 C 250.957031 155.195312 250.003906 154.222656 248.925781 153.421875 C 246.757812 151.765625 244.125 150.804688 241.273438 150.804688 L 223.003906 150.804688 L 223.003906 132.542969 C 223.003906 128.832031 221.367188 125.472656 218.726562 123.046875 C 217.601562 122.015625 216.304688 121.144531 214.863281 120.496094 C 213.484375 119.859375 211.980469 119.429688 210.390625 119.234375 C 209.742188 119.152344 209.070312 119.105469 208.394531 119.105469 C 206.945312 119.105469 205.542969 119.304688 204.222656 119.660156 C 199.109375 121.054688 195.179688 124.949219 194.089844 129.792969 C 193.878906 130.6875 193.777344 131.601562 193.777344 132.542969 L 193.777344 150.800781 L 175.503906 150.800781 C 174.578125 150.800781 173.671875 150.90625 172.792969 151.101562 C 172.792969 151.101562 172.792969 151.101562 172.78125 151.101562 C 170.160156 151.683594 167.828125 153.109375 166.011719 155.089844 C 164.457031 156.785156 163.285156 158.890625 162.636719 161.246094 C 162.277344 162.570312 162.078125 163.972656 162.078125 165.421875 C 162.078125 166.09375 162.125 166.765625 162.207031 167.414062 C 162.40625 169.003906 162.832031 170.511719 163.472656 171.890625 C 165.664062 176.722656 170.21875 180.039062 175.503906 180.039062 L 193.777344 180.039062 L 193.777344 198.3125 C 193.777344 201.152344 194.742188 203.796875 196.386719 205.964844 C 197.183594 207.03125 198.171875 207.992188 199.273438 208.804688 C 200.398438 209.628906 201.660156 210.3125 203.03125 210.800781 C 204.6875 211.402344 206.496094 211.738281 208.394531 211.738281 C 216.464844 211.738281 223.003906 205.734375 223.003906 198.3125 L 223.003906 180.042969 L 241.277344 180.042969 C 248.695312 180.042969 254.703125 173.492188 254.703125 165.421875 C 254.699219 163.53125 254.375 161.722656 253.761719 160.066406 Z M 253.761719 160.066406 C 253.273438 158.695312 252.601562 157.433594 251.769531 156.308594 C 250.957031 155.195312 250.003906 154.222656 248.925781 153.421875 C 246.757812 151.765625 244.125 150.804688 241.273438 150.804688 L 223.003906 150.804688 L 223.003906 132.542969 C 223.003906 128.832031 221.367188 125.472656 218.726562 123.046875 C 217.601562 122.015625 216.304688 121.144531 214.863281 120.496094 C 213.484375 119.859375 211.980469 119.429688 210.390625 119.234375 C 209.742188 119.152344 209.070312 119.105469 208.394531 119.105469 C 206.945312 119.105469 205.542969 119.304688 204.222656 119.660156 C 199.109375 121.054688 195.179688 124.949219 194.089844 129.792969 C 193.878906 130.6875 193.777344 131.601562 193.777344 132.542969 L 193.777344 150.800781 L 175.503906 150.800781 C 174.578125 150.800781 173.671875 150.90625 172.792969 151.101562 C 172.792969 151.101562 172.792969 151.101562 172.78125 151.101562 C 170.160156 151.683594 167.828125 153.109375 166.011719 155.089844 C 164.457031 156.785156 163.285156 158.890625 162.636719 161.246094 C 162.277344 162.570312 162.078125 163.972656 162.078125 165.421875 C 162.078125 166.09375 162.125 166.765625 162.207031 167.414062 C 162.40625 169.003906 162.832031 170.511719 163.472656 171.890625 C 165.664062 176.722656 170.21875 180.039062 175.503906 180.039062 L 193.777344 180.039062 L 193.777344 198.3125 C 193.777344 201.152344 194.742188 203.796875 196.386719 205.964844 C 197.183594 207.03125 198.171875 207.992188 199.273438 208.804688 C 200.398438 209.628906 201.660156 210.3125 203.03125 210.800781 C 204.6875 211.402344 206.496094 211.738281 208.394531 211.738281 C 216.464844 211.738281 223.003906 205.734375 223.003906 198.3125 L 223.003906 180.042969 L 241.277344 180.042969 C 248.695312 180.042969 254.703125 173.492188 254.703125 165.421875 C 254.699219 163.53125 254.375 161.722656 253.761719 160.066406 Z M 253.761719 160.066406 C 253.273438 158.695312 252.601562 157.433594 251.769531 156.308594 C 250.957031 155.195312 250.003906 154.222656 248.925781 153.421875 C 246.757812 151.765625 244.125 150.804688 241.273438 150.804688 L 223.003906 150.804688 L 223.003906 132.542969 C 223.003906 128.832031 221.367188 125.472656 218.726562 123.046875 C 217.601562 122.015625 216.304688 121.144531 214.863281 120.496094 C 213.484375 119.859375 211.980469 119.429688 210.390625 119.234375 C 209.742188 119.152344 209.070312 119.105469 208.394531 119.105469 C 206.945312 119.105469 205.542969 119.304688 204.222656 119.660156 C 199.109375 121.054688 195.179688 124.949219 194.089844 129.792969 C 193.878906 130.6875 193.777344 131.601562 193.777344 132.542969 L 193.777344 150.800781 L 175.503906 150.800781 C 174.578125 150.800781 173.671875 150.90625 172.792969 151.101562 C 172.792969 151.101562 172.792969 151.101562 172.78125 151.101562 C 170.160156 151.683594 167.828125 153.109375 166.011719 155.089844 C 164.457031 156.785156 163.285156 158.890625 162.636719 161.246094 C 162.277344 162.570312 162.078125 163.972656 162.078125 165.421875 C 162.078125 166.09375 162.125 166.765625 162.207031 167.414062 C 162.40625 169.003906 162.832031 170.511719 163.472656 171.890625 C 165.664062 176.722656 170.21875 180.039062 175.503906 180.039062 L 193.777344 180.039062 L 193.777344 198.3125 C 193.777344 201.152344 194.742188 203.796875 196.386719 205.964844 C 197.183594 207.03125 198.171875 207.992188 199.273438 208.804688 C 200.398438 209.628906 201.660156 210.3125 203.03125 210.800781 C 204.6875 211.402344 206.496094 211.738281 208.394531 211.738281 C 216.464844 211.738281 223.003906 205.734375 223.003906 198.3125 L 223.003906 180.042969 L 241.277344 180.042969 C 248.695312 180.042969 254.703125 173.492188 254.703125 165.421875 C 254.699219 163.53125 254.375 161.722656 253.761719 160.066406 Z M 253.761719 160.066406 C 253.273438 158.695312 252.601562 157.433594 251.769531 156.308594 C 250.957031 155.195312 250.003906 154.222656 248.925781 153.421875 C 246.757812 151.765625 244.125 150.804688 241.273438 150.804688 L 223.003906 150.804688 L 223.003906 132.542969 C 223.003906 128.832031 221.367188 125.472656 218.726562 123.046875 C 217.601562 122.015625 216.304688 121.144531 214.863281 120.496094 C 213.484375 119.859375 211.980469 119.429688 210.390625 119.234375 C 209.742188 119.152344 209.070312 119.105469 208.394531 119.105469 C 206.945312 119.105469 205.542969 119.304688 204.222656 119.660156 C 199.109375 121.054688 195.179688 124.949219 194.089844 129.792969 C 193.878906 130.6875 193.777344 131.601562 193.777344 132.542969 L 193.777344 150.800781 L 175.503906 150.800781 C 174.578125 150.800781 173.671875 150.90625 172.792969 151.101562 C 172.792969 151.101562 172.792969 151.101562 172.78125 151.101562 C 170.160156 151.683594 167.828125 153.109375 166.011719 155.089844 C 164.457031 156.785156 163.285156 158.890625 162.636719 161.246094 C 162.277344 162.570312 162.078125 163.972656 162.078125 165.421875 C 162.078125 166.09375 162.125 166.765625 162.207031 167.414062 C 162.40625 169.003906 162.832031 170.511719 163.472656 171.890625 C 165.664062 176.722656 170.21875 180.039062 175.503906 180.039062 L 193.777344 180.039062 L 193.777344 198.3125 C 193.777344 201.152344 194.742188 203.796875 196.386719 205.964844 C 197.183594 207.03125 198.171875 207.992188 199.273438 208.804688 C 200.398438 209.628906 201.660156 210.3125 203.03125 210.800781 C 204.6875 211.402344 206.496094 211.738281 208.394531 211.738281 C 216.464844 211.738281 223.003906 205.734375 223.003906 198.3125 L 223.003906 180.042969 L 241.277344 180.042969 C 248.695312 180.042969 254.703125 173.492188 254.703125 165.421875 C 254.699219 163.53125 254.375 161.722656 253.761719 160.066406 Z M 253.761719 160.066406 C 253.273438 158.695312 252.601562 157.433594 251.769531 156.308594 C 250.957031 155.195312 250.003906 154.222656 248.925781 153.421875 C 246.757812 151.765625 244.125 150.804688 241.273438 150.804688 L 223.003906 150.804688 L 223.003906 132.542969 C 223.003906 128.832031 221.367188 125.472656 218.726562 123.046875 C 217.601562 122.015625 216.304688 121.144531 214.863281 120.496094 C 213.484375 119.859375 211.980469 119.429688 210.390625 119.234375 C 209.742188 119.152344 209.070312 119.105469 208.394531 119.105469 C 206.945312 119.105469 205.542969 119.304688 204.222656 119.660156 C 199.109375 121.054688 195.179688 124.949219 194.089844 129.792969 C 193.878906 130.6875 193.777344 131.601562 193.777344 132.542969 L 193.777344 150.800781 L 175.503906 150.800781 C 174.578125 150.800781 173.671875 150.90625 172.792969 151.101562 C 172.792969 151.101562 172.792969 151.101562 172.78125 151.101562 C 170.160156 151.683594 167.828125 153.109375 166.011719 155.089844 C 164.457031 156.785156 163.285156 158.890625 162.636719 161.246094 C 162.277344 162.570312 162.078125 163.972656 162.078125 165.421875 C 162.078125 166.09375 162.125 166.765625 162.207031 167.414062 C 162.40625 169.003906 162.832031 170.511719 163.472656 171.890625 C 165.664062 176.722656 170.21875 180.039062 175.503906 180.039062 L 193.777344 180.039062 L 193.777344 198.3125 C 193.777344 201.152344 194.742188 203.796875 196.386719 205.964844 C 197.183594 207.03125 198.171875 207.992188 199.273438 208.804688 C 200.398438 209.628906 201.660156 210.3125 203.03125 210.800781 C 204.6875 211.402344 206.496094 211.738281 208.394531 211.738281 C 216.464844 211.738281 223.003906 205.734375 223.003906 198.3125 L 223.003906 180.042969 L 241.277344 180.042969 C 248.695312 180.042969 254.703125 173.492188 254.703125 165.421875 C 254.699219 163.53125 254.375 161.722656 253.761719 160.066406 Z M 253.761719 160.066406 C 253.273438 158.695312 252.601562 157.433594 251.769531 156.308594 C 250.957031 155.195312 250.003906 154.222656 248.925781 153.421875 C 246.757812 151.765625 244.125 150.804688 241.273438 150.804688 L 223.003906 150.804688 L 223.003906 132.542969 C 223.003906 128.832031 221.367188 125.472656 218.726562 123.046875 C 217.601562 122.015625 216.304688 121.144531 214.863281 120.496094 C 213.484375 119.859375 211.980469 119.429688 210.390625 119.234375 C 209.742188 119.152344 209.070312 119.105469 208.394531 119.105469 C 206.945312 119.105469 205.542969 119.304688 204.222656 119.660156 C 199.109375 121.054688 195.179688 124.949219 194.089844 129.792969 C 193.878906 130.6875 193.777344 131.601562 193.777344 132.542969 L 193.777344 150.800781 L 175.503906 150.800781 C 174.578125 150.800781 173.671875 150.90625 172.792969 151.101562 C 172.792969 151.101562 172.792969 151.101562 172.78125 151.101562 C 170.160156 151.683594 167.828125 153.109375 166.011719 155.089844 C 164.457031 156.785156 163.285156 158.890625 162.636719 161.246094 C 162.277344 162.570312 162.078125 163.972656 162.078125 165.421875 C 162.078125 166.09375 162.125 166.765625 162.207031 167.414062 C 162.40625 169.003906 162.832031 170.511719 163.472656 171.890625 C 165.664062 176.722656 170.21875 180.039062 175.503906 180.039062 L 193.777344 180.039062 L 193.777344 198.3125 C 193.777344 201.152344 194.742188 203.796875 196.386719 205.964844 C 197.183594 207.03125 198.171875 207.992188 199.273438 208.804688 C 200.398438 209.628906 201.660156 210.3125 203.03125 210.800781 C 204.6875 211.402344 206.496094 211.738281 208.394531 211.738281 C 216.464844 211.738281 223.003906 205.734375 223.003906 198.3125 L 223.003906 180.042969 L 241.277344 180.042969 C 248.695312 180.042969 254.703125 173.492188 254.703125 165.421875 C 254.699219 163.53125 254.375 161.722656 253.761719 160.066406 Z M 253.761719 160.066406 C 253.273438 158.695312 252.601562 157.433594 251.769531 156.308594 C 250.957031 155.195312 250.003906 154.222656 248.925781 153.421875 C 246.757812 151.765625 244.125 150.804688 241.273438 150.804688 L 223.003906 150.804688 L 223.003906 132.542969 C 223.003906 128.832031 221.367188 125.472656 218.726562 123.046875 C 217.601562 122.015625 216.304688 121.144531 214.863281 120.496094 C 213.484375 119.859375 211.980469 119.429688 210.390625 119.234375 C 209.742188 119.152344 209.070312 119.105469 208.394531 119.105469 C 206.945312 119.105469 205.542969 119.304688 204.222656 119.660156 C 199.109375 121.054688 195.179688 124.949219 194.089844 129.792969 C 193.878906 130.6875 193.777344 131.601562 193.777344 132.542969 L 193.777344 150.800781 L 175.503906 150.800781 C 174.578125 150.800781 173.671875 150.90625 172.792969 151.101562 C 172.792969 151.101562 172.792969 151.101562 172.78125 151.101562 C 170.160156 151.683594 167.828125 153.109375 166.011719 155.089844 C 164.457031 156.785156 163.285156 158.890625 162.636719 161.246094 C 162.277344 162.570312 162.078125 163.972656 162.078125 165.421875 C 162.078125 166.09375 162.125 166.765625 162.207031 167.414062 C 162.40625 169.003906 162.832031 170.511719 163.472656 171.890625 C 165.664062 176.722656 170.21875 180.039062 175.503906 180.039062 L 193.777344 180.039062 L 193.777344 198.3125 C 193.777344 201.152344 194.742188 203.796875 196.386719 205.964844 C 197.183594 207.03125 198.171875 207.992188 199.273438 208.804688 C 200.398438 209.628906 201.660156 210.3125 203.03125 210.800781 C 204.6875 211.402344 206.496094 211.738281 208.394531 211.738281 C 216.464844 211.738281 223.003906 205.734375 223.003906 198.3125 L 223.003906 180.042969 L 241.277344 180.042969 C 248.695312 180.042969 254.703125 173.492188 254.703125 165.421875 C 254.699219 163.53125 254.375 161.722656 253.761719 160.066406 Z M 253.761719 160.066406 C 253.273438 158.695312 252.601562 157.433594 251.769531 156.308594 C 250.957031 155.195312 250.003906 154.222656 248.925781 153.421875 C 246.757812 151.765625 244.125 150.804688 241.273438 150.804688 L 223.003906 150.804688 L 223.003906 132.542969 C 223.003906 128.832031 221.367188 125.472656 218.726562 123.046875 C 217.601562 122.015625 216.304688 121.144531 214.863281 120.496094 C 213.484375 119.859375 211.980469 119.429688 210.390625 119.234375 C 209.742188 119.152344 209.070312 119.105469 208.394531 119.105469 C 206.945312 119.105469 205.542969 119.304688 204.222656 119.660156 C 199.109375 121.054688 195.179688 124.949219 194.089844 129.792969 C 193.878906 130.6875 193.777344 131.601562 193.777344 132.542969 L 193.777344 150.800781 L 175.503906 150.800781 C 174.578125 150.800781 173.671875 150.90625 172.792969 151.101562 C 172.792969 151.101562 172.792969 151.101562 172.78125 151.101562 C 170.160156 151.683594 167.828125 153.109375 166.011719 155.089844 C 164.457031 156.785156 163.285156 158.890625 162.636719 161.246094 C 162.277344 162.570312 162.078125 163.972656 162.078125 165.421875 C 162.078125 166.09375 162.125 166.765625 162.207031 167.414062 C 162.40625 169.003906 162.832031 170.511719 163.472656 171.890625 C 165.664062 176.722656 170.21875 180.039062 175.503906 180.039062 L 193.777344 180.039062 L 193.777344 198.3125 C 193.777344 201.152344 194.742188 203.796875 196.386719 205.964844 C 197.183594 207.03125 198.171875 207.992188 199.273438 208.804688 C 200.398438 209.628906 201.660156 210.3125 203.03125 210.800781 C 204.6875 211.402344 206.496094 211.738281 208.394531 211.738281 C 216.464844 211.738281 223.003906 205.734375 223.003906 198.3125 L 223.003906 180.042969 L 241.277344 180.042969 C 248.695312 180.042969 254.703125 173.492188 254.703125 165.421875 C 254.699219 163.53125 254.375 161.722656 253.761719 160.066406 Z M 253.761719 160.066406 C 253.273438 158.695312 252.601562 157.433594 251.769531 156.308594 C 250.957031 155.195312 250.003906 154.222656 248.925781 153.421875 C 246.757812 151.765625 244.125 150.804688 241.273438 150.804688 L 223.003906 150.804688 L 223.003906 132.542969 C 223.003906 128.832031 221.367188 125.472656 218.726562 123.046875 C 217.601562 122.015625 216.304688 121.144531 214.863281 120.496094 C 213.484375 119.859375 211.980469 119.429688 210.390625 119.234375 C 209.742188 119.152344 209.070312 119.105469 208.394531 119.105469 C 206.945312 119.105469 205.542969 119.304688 204.222656 119.660156 C 199.109375 121.054688 195.179688 124.949219 194.089844 129.792969 C 193.878906 130.6875 193.777344 131.601562 193.777344 132.542969 L 193.777344 150.800781 L 175.503906 150.800781 C 174.578125 150.800781 173.671875 150.90625 172.792969 151.101562 C 172.792969 151.101562 172.792969 151.101562 172.78125 151.101562 C 170.160156 151.683594 167.828125 153.109375 166.011719 155.089844 C 164.457031 156.785156 163.285156 158.890625 162.636719 161.246094 C 162.277344 162.570312 162.078125 163.972656 162.078125 165.421875 C 162.078125 166.09375 162.125 166.765625 162.207031 167.414062 C 162.40625 169.003906 162.832031 170.511719 163.472656 171.890625 C 165.664062 176.722656 170.21875 180.039062 175.503906 180.039062 L 193.777344 180.039062 L 193.777344 198.3125 C 193.777344 201.152344 194.742188 203.796875 196.386719 205.964844 C 197.183594 207.03125 198.171875 207.992188 199.273438 208.804688 C 200.398438 209.628906 201.660156 210.3125 203.03125 210.800781 C 204.6875 211.402344 206.496094 211.738281 208.394531 211.738281 C 216.464844 211.738281 223.003906 205.734375 223.003906 198.3125 L 223.003906 180.042969 L 241.277344 180.042969 C 248.695312 180.042969 254.703125 173.492188 254.703125 165.421875 C 254.699219 163.53125 254.375 161.722656 253.761719 160.066406 Z M 253.761719 160.066406 C 253.273438 158.695312 252.601562 157.433594 251.769531 156.308594 C 250.957031 155.195312 250.003906 154.222656 248.925781 153.421875 C 246.757812 151.765625 244.125 150.804688 241.273438 150.804688 L 223.003906 150.804688 L 223.003906 132.542969 C 223.003906 128.832031 221.367188 125.472656 218.726562 123.046875 C 217.601562 122.015625 216.304688 121.144531 214.863281 120.496094 C 213.484375 119.859375 211.980469 119.429688 210.390625 119.234375 C 209.742188 119.152344 209.070312 119.105469 208.394531 119.105469 C 206.945312 119.105469 205.542969 119.304688 204.222656 119.660156 C 199.109375 121.054688 195.179688 124.949219 194.089844 129.792969 C 193.878906 130.6875 193.777344 131.601562 193.777344 132.542969 L 193.777344 150.800781 L 175.503906 150.800781 C 174.578125 150.800781 173.671875 150.90625 172.792969 151.101562 C 172.792969 151.101562 172.792969 151.101562 172.78125 151.101562 C 170.160156 151.683594 167.828125 153.109375 166.011719 155.089844 C 164.457031 156.785156 163.285156 158.890625 162.636719 161.246094 C 162.277344 162.570312 162.078125 163.972656 162.078125 165.421875 C 162.078125 166.09375 162.125 166.765625 162.207031 167.414062 C 162.40625 169.003906 162.832031 170.511719 163.472656 171.890625 C 165.664062 176.722656 170.21875 180.039062 175.503906 180.039062 L 193.777344 180.039062 L 193.777344 198.3125 C 193.777344 201.152344 194.742188 203.796875 196.386719 205.964844 C 197.183594 207.03125 198.171875 207.992188 199.273438 208.804688 C 200.398438 209.628906 201.660156 210.3125 203.03125 210.800781 C 204.6875 211.402344 206.496094 211.738281 208.394531 211.738281 C 216.464844 211.738281 223.003906 205.734375 223.003906 198.3125 L 223.003906 180.042969 L 241.277344 180.042969 C 248.695312 180.042969 254.703125 173.492188 254.703125 165.421875 C 254.699219 163.53125 254.375 161.722656 253.761719 160.066406 Z M 253.761719 160.066406 C 253.273438 158.695312 252.601562 157.433594 251.769531 156.308594 C 250.957031 155.195312 250.003906 154.222656 248.925781 153.421875 C 246.757812 151.765625 244.125 150.804688 241.273438 150.804688 L 223.003906 150.804688 L 223.003906 132.542969 C 223.003906 128.832031 221.367188 125.472656 218.726562 123.046875 C 217.601562 122.015625 216.304688 121.144531 214.863281 120.496094 C 213.484375 119.859375 211.980469 119.429688 210.390625 119.234375 C 209.742188 119.152344 209.070312 119.105469 208.394531 119.105469 C 206.945312 119.105469 205.542969 119.304688 204.222656 119.660156 C 199.109375 121.054688 195.179688 124.949219 194.089844 129.792969 C 193.878906 130.6875 193.777344 131.601562 193.777344 132.542969 L 193.777344 150.800781 L 175.503906 150.800781 C 174.578125 150.800781 173.671875 150.90625 172.792969 151.101562 C 172.792969 151.101562 172.792969 151.101562 172.78125 151.101562 C 170.160156 151.683594 167.828125 153.109375 166.011719 155.089844 C 164.457031 156.785156 163.285156 158.890625 162.636719 161.246094 C 162.277344 162.570312 162.078125 163.972656 162.078125 165.421875 C 162.078125 166.09375 162.125 166.765625 162.207031 167.414062 C 162.40625 169.003906 162.832031 170.511719 163.472656 171.890625 C 165.664062 176.722656 170.21875 180.039062 175.503906 180.039062 L 193.777344 180.039062 L 193.777344 198.3125 C 193.777344 201.152344 194.742188 203.796875 196.386719 205.964844 C 197.183594 207.03125 198.171875 207.992188 199.273438 208.804688 C 200.398438 209.628906 201.660156 210.3125 203.03125 210.800781 C 204.6875 211.402344 206.496094 211.738281 208.394531 211.738281 C 216.464844 211.738281 223.003906 205.734375 223.003906 198.3125 L 223.003906 180.042969 L 241.277344 180.042969 C 248.695312 180.042969 254.703125 173.492188 254.703125 165.421875 C 254.699219 163.53125 254.375 161.722656 253.761719 160.066406 Z M 175.503906 150.804688 C 174.578125 150.804688 173.671875 150.90625 172.792969 151.105469 C 172.792969 151.105469 172.792969 151.105469 172.78125 151.105469 C 170.160156 151.683594 167.828125 153.109375 166.011719 155.089844 C 164.457031 156.785156 163.285156 158.894531 162.636719 161.25 C 162.277344 162.570312 162.078125 163.972656 162.078125 165.421875 C 162.078125 166.09375 162.125 166.765625 162.207031 167.417969 C 162.40625 169.003906 162.832031 170.511719 163.472656 171.890625 C 165.664062 176.726562 170.21875 180.042969 175.503906 180.042969 L 193.777344 180.042969 L 193.777344 150.804688 Z M 218.726562 123.046875 C 217.601562 122.015625 216.304688 121.144531 214.863281 120.496094 C 213.484375 119.859375 211.980469 119.429688 210.390625 119.234375 C 209.742188 119.152344 209.070312 119.105469 208.394531 119.105469 C 206.945312 119.105469 205.542969 119.304688 204.222656 119.660156 C 199.109375 121.054688 195.179688 124.949219 194.089844 129.792969 C 193.878906 130.6875 193.777344 131.601562 193.777344 132.542969 L 193.777344 150.800781 L 223.003906 150.800781 L 223.003906 132.542969 C 223.003906 128.832031 221.367188 125.472656 218.726562 123.046875 Z M 241.273438 150.804688 L 223.003906 150.804688 L 223.003906 179.34375 L 248.925781 153.421875 C 246.757812 151.765625 244.125 150.804688 241.273438 150.804688 Z M 253.761719 160.066406 L 233.785156 180.039062 L 241.273438 180.039062 C 248.695312 180.039062 254.699219 173.492188 254.699219 165.421875 C 254.699219 163.53125 254.375 161.722656 253.761719 160.066406 Z M 175.503906 150.804688 C 174.578125 150.804688 173.671875 150.90625 172.792969 151.105469 C 172.792969 151.105469 172.792969 151.105469 172.78125 151.105469 C 170.160156 151.683594 167.828125 153.109375 166.011719 155.089844 C 164.457031 156.785156 163.285156 158.894531 162.636719 161.25 C 162.277344 162.570312 162.078125 163.972656 162.078125 165.421875 C 162.078125 166.09375 162.125 166.765625 162.207031 167.417969 C 162.40625 169.003906 162.832031 170.511719 163.472656 171.890625 C 165.664062 176.726562 170.21875 180.042969 175.503906 180.042969 L 193.777344 180.042969 L 193.777344 150.804688 Z M 253.761719 160.066406 L 233.785156 180.039062 L 241.273438 180.039062 C 248.695312 180.039062 254.699219 173.492188 254.699219 165.421875 C 254.699219 163.53125 254.375 161.722656 253.761719 160.066406 Z M 210.390625 119.234375 C 209.742188 119.152344 209.070312 119.105469 208.394531 119.105469 C 206.945312 119.105469 205.542969 119.304688 204.222656 119.660156 C 199.109375 121.054688 195.179688 124.949219 194.089844 129.792969 C 193.878906 130.6875 193.777344 131.601562 193.777344 132.542969 L 193.777344 141.585938 L 214.863281 120.496094 C 213.484375 119.859375 211.980469 119.429688 210.390625 119.234375 Z M 210.390625 119.234375 " fill-opacity="1" fill-rule="nonzero"/></g><path fill="#ffffff" d="M 254.699219 165.421875 C 254.699219 173.492188 248.695312 180.039062 241.273438 180.039062 L 223.003906 180.039062 L 223.003906 198.3125 C 223.003906 205.730469 216.464844 211.734375 208.394531 211.734375 C 206.492188 211.734375 204.683594 211.402344 203.027344 210.800781 C 201.660156 210.3125 200.394531 209.628906 199.269531 208.804688 C 198.167969 207.992188 197.183594 207.03125 196.382812 205.964844 C 194.738281 203.792969 193.777344 201.152344 193.777344 198.308594 L 193.777344 180.039062 L 175.503906 180.039062 C 170.21875 180.039062 165.664062 176.722656 163.46875 171.890625 C 162.832031 170.511719 162.402344 169 162.207031 167.414062 C 162.125 166.765625 162.078125 166.09375 162.078125 165.417969 C 162.078125 163.96875 162.277344 162.570312 162.632812 161.246094 C 163.285156 158.890625 164.457031 156.785156 166.007812 155.089844 C 167.828125 153.109375 170.160156 151.683594 172.777344 151.101562 C 172.789062 151.101562 172.789062 151.101562 172.789062 151.101562 C 173.671875 150.90625 174.574219 150.800781 175.503906 150.800781 L 193.777344 150.800781 L 193.777344 132.542969 C 193.777344 131.601562 193.878906 130.6875 194.085938 129.792969 C 195.179688 124.945312 199.109375 121.050781 204.21875 119.660156 C 205.542969 119.300781 206.945312 119.105469 208.394531 119.105469 C 209.066406 119.105469 209.738281 119.148438 210.390625 119.230469 C 211.976562 119.429688 213.484375 119.855469 214.863281 120.496094 C 216.300781 121.144531 217.601562 122.015625 218.726562 123.046875 C 221.367188 125.46875 223.003906 128.832031 223.003906 132.542969 L 223.003906 150.800781 L 241.273438 150.800781 C 244.125 150.800781 246.757812 151.765625 248.925781 153.421875 C 250.003906 154.21875 250.953125 155.195312 251.765625 156.308594 C 252.601562 157.433594 253.273438 158.695312 253.761719 160.066406 C 254.375 161.722656 254.699219 163.53125 254.699219 165.421875 Z M 254.699219 165.421875 " fill-opacity="1" fill-rule="nonzero"/><path fill="#737373" d="M 254.699219 165.421875 C 254.699219 173.492188 248.695312 180.039062 241.273438 180.039062 L 175.503906 180.039062 C 170.21875 180.039062 165.664062 176.726562 163.46875 171.890625 C 162.832031 170.511719 162.402344 169.003906 162.207031 167.414062 C 162.125 166.765625 162.078125 166.09375 162.078125 165.421875 C 162.078125 163.972656 162.277344 162.570312 162.632812 161.246094 C 163.285156 158.890625 164.457031 156.785156 166.007812 155.089844 C 167.828125 153.109375 170.160156 151.683594 172.777344 151.101562 C 172.789062 151.101562 172.789062 151.101562 172.789062 151.101562 C 173.671875 150.90625 174.574219 150.800781 175.503906 150.800781 L 241.273438 150.800781 C 244.125 150.800781 246.757812 151.765625 248.925781 153.421875 C 250.003906 154.21875 250.953125 155.195312 251.765625 156.308594 C 252.601562 157.433594 253.273438 158.695312 253.761719 160.066406 C 254.375 161.722656 254.699219 163.53125 254.699219 165.421875 Z M 254.699219 165.421875 " fill-opacity="1" fill-rule="nonzero"/><path fill="#737373" d="M 223.003906 132.542969 L 223.003906 198.3125 C 223.003906 205.730469 216.464844 211.734375 208.394531 211.734375 C 206.492188 211.734375 204.683594 211.402344 203.027344 210.800781 C 201.660156 210.3125 200.394531 209.628906 199.269531 208.804688 C 198.167969 207.992188 197.183594 207.03125 196.382812 205.964844 C 194.738281 203.792969 193.777344 201.152344 193.777344 198.308594 L 193.777344 132.542969 C 193.777344 131.601562 193.878906 130.6875 194.089844 129.792969 C 195.179688 124.949219 199.109375 121.054688 204.222656 119.660156 C 205.542969 119.304688 206.945312 119.105469 208.394531 119.105469 C 209.070312 119.105469 209.742188 119.152344 210.390625 119.234375 C 211.980469 119.429688 213.484375 119.859375 214.863281 120.496094 C 216.304688 121.144531 217.601562 122.015625 218.726562 123.046875 C 221.367188 125.472656 223.003906 128.832031 223.003906 132.542969 Z M 223.003906 132.542969 " fill-opacity="1" fill-rule="nonzero"/><g clip-path="url(#70368888d8)"><g clip-path="url(#7d8b74ebce)"><path fill="#ffffff" d="M 156.453125 113.601562 L 264.589844 113.601562 L 264.589844 221.738281 L 156.453125 221.738281 Z M 156.453125 113.601562 " fill-opacity="1" fill-rule="nonzero"/></g></g><g clip-path="url(#8ede8507dd)"><path fill="#4c952d" d="M 221.546875 121.875 C 221.355469 121.875 221.160156 121.886719 220.964844 121.902344 C 213.1875 123.242188 208.914062 131.464844 208.292969 138.714844 C 207.386719 145.292969 210.289062 153.75 217.511719 155.222656 C 218.558594 155.421875 219.648438 155.332031 220.671875 155.054688 C 229.371094 152.136719 233.261719 141.835938 232.003906 133.300781 C 231.640625 127.792969 227.484375 121.796875 221.546875 121.875 Z M 188.582031 122.226562 C 183.746094 122.34375 179.980469 127.25 179.214844 131.859375 C 177.601562 140.988281 181.753906 152.335938 191.269531 155.226562 C 192.160156 155.417969 193.082031 155.4375 193.980469 155.300781 C 200.410156 154.226562 203.136719 147.019531 202.867188 141.199219 C 202.671875 133.519531 198.683594 124.644531 190.710938 122.484375 C 189.984375 122.292969 189.273438 122.210938 188.582031 122.226562 Z M 242.613281 148.164062 C 234.25 148.664062 228.515625 157.007812 227.699219 164.800781 C 226.589844 170.421875 229.585938 177.9375 236 178.386719 C 244.941406 178.277344 251.042969 168.722656 251.292969 160.5 C 251.859375 155.0625 248.65625 148.464844 242.613281 148.164062 Z M 169.410156 150.015625 C 165.851562 149.984375 162.351562 152.117188 161.1875 155.734375 C 158.085938 165.410156 164.316406 177.664062 174.5625 179.695312 C 178.839844 180.429688 182.597656 177.144531 183.660156 173.191406 C 185.90625 164.738281 181.289062 154.925781 173.476562 151.089844 C 172.207031 150.375 170.800781 150.027344 169.410156 150.015625 Z M 206.902344 167.367188 C 199.925781 167.378906 192.84375 170.921875 188.324219 176.1875 C 183.445312 182.332031 179.449219 189.476562 177.886719 197.230469 C 175.988281 202.808594 180.292969 209.230469 186.257812 209.269531 C 193.429688 209.46875 199.597656 204.539062 206.734375 204.175781 C 212.785156 203.25 218.207031 206.398438 223.648438 208.460938 C 228.28125 210.441406 234.6875 209.683594 237.050781 204.695312 C 238.914062 199.613281 236.171875 194.195312 233.902344 189.679688 C 229.277344 182.351562 224.320312 174.652344 216.730469 170.078125 C 213.6875 168.191406 210.308594 167.359375 206.902344 167.367188 Z M 206.902344 167.367188 " fill-opacity="1" fill-rule="nonzero"/></g></svg>